<mxfile host="65bd71144e">
    <diagram id="rMIGq_Ssetjta3ygZq6b" name="PÃ¡gina-1">
        <mxGraphModel dx="1081" dy="740" grid="1" gridSize="10" guides="1" tooltips="1" connect="1" arrows="1" fold="1" page="1" pageScale="1" pageWidth="827" pageHeight="1169" math="0" shadow="0">
            <root>
                <mxCell id="0"/>
                <mxCell id="1" parent="0"/>
                <mxCell id="3" value="USUARI" style="rounded=0;whiteSpace=wrap;html=1;" parent="1" vertex="1">
                    <mxGeometry x="160" y="280" width="120" height="40" as="geometry"/>
                </mxCell>
                <mxCell id="108" style="edgeStyle=none;html=1;exitX=0;exitY=1;exitDx=0;exitDy=0;endArrow=none;endFill=0;" parent="1" source="104" target="3" edge="1">
                    <mxGeometry relative="1" as="geometry"/>
                </mxCell>
                <mxCell id="104" value="id" style="ellipse;whiteSpace=wrap;html=1;" parent="1" vertex="1">
                    <mxGeometry x="300" y="220" width="70" height="40" as="geometry"/>
                </mxCell>
                <mxCell id="105" value="nom" style="ellipse;whiteSpace=wrap;html=1;" parent="1" vertex="1">
                    <mxGeometry x="265" y="180" width="60" height="30" as="geometry"/>
                </mxCell>
                <mxCell id="106" value="cognom" style="ellipse;whiteSpace=wrap;html=1;" parent="1" vertex="1">
                    <mxGeometry x="190" y="170" width="70" height="30" as="geometry"/>
                </mxCell>
                <mxCell id="107" value="username" style="ellipse;whiteSpace=wrap;html=1;" parent="1" vertex="1">
                    <mxGeometry x="100" y="170" width="80" height="30" as="geometry"/>
                </mxCell>
                <mxCell id="109" style="edgeStyle=none;html=1;exitX=0.5;exitY=1;exitDx=0;exitDy=0;endArrow=none;endFill=0;fontStyle=1" parent="1" source="105" target="3" edge="1">
                    <mxGeometry relative="1" as="geometry">
                        <mxPoint x="298.78679656440363" y="245.60660171779818" as="sourcePoint"/>
                        <mxPoint x="251.36454928592138" y="290" as="targetPoint"/>
                    </mxGeometry>
                </mxCell>
                <mxCell id="111" style="edgeStyle=none;html=1;exitX=0.695;exitY=0.946;exitDx=0;exitDy=0;endArrow=none;endFill=0;fontStyle=1;exitPerimeter=0;" parent="1" source="106" target="3" edge="1">
                    <mxGeometry relative="1" as="geometry">
                        <mxPoint x="270" y="230" as="sourcePoint"/>
                        <mxPoint x="240" y="290" as="targetPoint"/>
                    </mxGeometry>
                </mxCell>
                <mxCell id="112" style="edgeStyle=none;html=1;endArrow=none;endFill=0;fontStyle=1;" parent="1" source="107" target="3" edge="1">
                    <mxGeometry relative="1" as="geometry">
                        <mxPoint x="211.70000000000005" y="223.38" as="sourcePoint"/>
                        <mxPoint x="225.7746478873239" y="290" as="targetPoint"/>
                    </mxGeometry>
                </mxCell>
                <mxCell id="113" value="rol" style="ellipse;whiteSpace=wrap;html=1;" parent="1" vertex="1">
                    <mxGeometry x="10" y="235" width="50" height="30" as="geometry"/>
                </mxCell>
                <mxCell id="114" style="edgeStyle=none;html=1;endArrow=none;endFill=0;fontStyle=1;" parent="1" source="113" target="3" edge="1">
                    <mxGeometry relative="1" as="geometry">
                        <mxPoint x="75.50660269824306" y="285.0013198691413" as="sourcePoint"/>
                        <mxPoint x="144.48555555555566" y="341.35" as="targetPoint"/>
                    </mxGeometry>
                </mxCell>
                <mxCell id="115" value="email" style="ellipse;whiteSpace=wrap;html=1;" parent="1" vertex="1">
                    <mxGeometry x="10" y="280" width="50" height="30" as="geometry"/>
                </mxCell>
                <mxCell id="116" value="telefon" style="ellipse;whiteSpace=wrap;html=1;" parent="1" vertex="1">
                    <mxGeometry x="20" y="325" width="50" height="30" as="geometry"/>
                </mxCell>
                <mxCell id="117" value="contrasenya" style="ellipse;whiteSpace=wrap;html=1;" parent="1" vertex="1">
                    <mxGeometry x="10" y="195" width="90" height="30" as="geometry"/>
                </mxCell>
                <mxCell id="118" style="edgeStyle=none;html=1;endArrow=none;endFill=0;fontStyle=1;" parent="1" source="117" target="3" edge="1">
                    <mxGeometry relative="1" as="geometry">
                        <mxPoint x="79.97640395887788" y="305.65155836414465" as="sourcePoint"/>
                        <mxPoint x="170" y="308.2857142857142" as="targetPoint"/>
                    </mxGeometry>
                </mxCell>
                <mxCell id="119" style="edgeStyle=none;html=1;endArrow=none;endFill=0;fontStyle=1;" parent="1" source="115" target="3" edge="1">
                    <mxGeometry relative="1" as="geometry">
                        <mxPoint x="79.97640395887788" y="305.65155836414465" as="sourcePoint"/>
                        <mxPoint x="170" y="308.2857142857142" as="targetPoint"/>
                    </mxGeometry>
                </mxCell>
                <mxCell id="120" style="edgeStyle=none;html=1;endArrow=none;endFill=0;fontStyle=1;" parent="1" source="116" target="3" edge="1">
                    <mxGeometry relative="1" as="geometry">
                        <mxPoint x="78.71708245126274" y="340.25658350974754" as="sourcePoint"/>
                        <mxPoint x="170" y="322" as="targetPoint"/>
                    </mxGeometry>
                </mxCell>
                <mxCell id="121" value="CATEGORIA" style="rounded=0;whiteSpace=wrap;html=1;" parent="1" vertex="1">
                    <mxGeometry x="600" y="280" width="120" height="40" as="geometry"/>
                </mxCell>
                <mxCell id="122" value="id" style="ellipse;whiteSpace=wrap;html=1;" parent="1" vertex="1">
                    <mxGeometry x="590" y="190" width="70" height="45" as="geometry"/>
                </mxCell>
                <mxCell id="123" value="nom" style="ellipse;whiteSpace=wrap;html=1;" parent="1" vertex="1">
                    <mxGeometry x="680" y="210" width="60" height="30" as="geometry"/>
                </mxCell>
                <mxCell id="124" style="edgeStyle=none;html=1;endArrow=none;endFill=0;" parent="1" source="123" target="121" edge="1">
                    <mxGeometry relative="1" as="geometry">
                        <mxPoint x="398.78679656440363" y="265.6066017177982" as="sourcePoint"/>
                        <mxPoint x="350" y="290" as="targetPoint"/>
                    </mxGeometry>
                </mxCell>
                <mxCell id="125" style="edgeStyle=none;html=1;endArrow=none;endFill=0;" parent="1" source="122" target="121" edge="1">
                    <mxGeometry relative="1" as="geometry">
                        <mxPoint x="710.6688281875613" y="249.25595693567038" as="sourcePoint"/>
                        <mxPoint x="683.3333333333333" y="290" as="targetPoint"/>
                    </mxGeometry>
                </mxCell>
                <mxCell id="126" value="crea" style="rhombus;whiteSpace=wrap;html=1;" parent="1" vertex="1">
                    <mxGeometry x="420" y="260" width="50" height="50" as="geometry"/>
                </mxCell>
                <mxCell id="127" style="edgeStyle=none;html=1;endArrow=none;endFill=0;" parent="1" source="126" target="3" edge="1">
                    <mxGeometry relative="1" as="geometry">
                        <mxPoint x="354.39679656440364" y="319.99660171779817" as="sourcePoint"/>
                        <mxPoint x="305.61" y="344.39" as="targetPoint"/>
                    </mxGeometry>
                </mxCell>
                <mxCell id="128" style="edgeStyle=none;html=1;endArrow=none;endFill=0;" parent="1" source="126" target="121" edge="1">
                    <mxGeometry relative="1" as="geometry">
                        <mxPoint x="440" y="310" as="sourcePoint"/>
                        <mxPoint x="290" y="310" as="targetPoint"/>
                    </mxGeometry>
                </mxCell>
                <mxCell id="129" value="data_creacio" style="ellipse;whiteSpace=wrap;html=1;" parent="1" vertex="1">
                    <mxGeometry x="440" y="210" width="100" height="30" as="geometry"/>
                </mxCell>
                <mxCell id="130" style="edgeStyle=none;html=1;endArrow=none;endFill=0;" parent="1" source="126" target="129" edge="1">
                    <mxGeometry relative="1" as="geometry">
                        <mxPoint x="480" y="310" as="sourcePoint"/>
                        <mxPoint x="610" y="310" as="targetPoint"/>
                    </mxGeometry>
                </mxCell>
                <mxCell id="131" value="N" style="text;html=1;strokeColor=none;fillColor=none;align=center;verticalAlign=middle;whiteSpace=wrap;rounded=0;" parent="1" vertex="1">
                    <mxGeometry x="565" y="275" width="30" height="20" as="geometry"/>
                </mxCell>
                <mxCell id="132" value="1" style="text;html=1;strokeColor=none;fillColor=none;align=center;verticalAlign=middle;whiteSpace=wrap;rounded=0;" parent="1" vertex="1">
                    <mxGeometry x="285" y="275" width="30" height="20" as="geometry"/>
                </mxCell>
                <mxCell id="133" value="edita" style="rhombus;whiteSpace=wrap;html=1;" parent="1" vertex="1">
                    <mxGeometry x="420" y="325" width="50" height="50" as="geometry"/>
                </mxCell>
                <mxCell id="134" style="edgeStyle=none;html=1;endArrow=none;endFill=0;" parent="1" source="133" target="3" edge="1">
                    <mxGeometry relative="1" as="geometry">
                        <mxPoint x="431.5625" y="296.5625" as="sourcePoint"/>
                        <mxPoint x="290" y="306" as="targetPoint"/>
                    </mxGeometry>
                </mxCell>
                <mxCell id="135" style="edgeStyle=none;html=1;endArrow=none;endFill=0;" parent="1" source="133" target="121" edge="1">
                    <mxGeometry relative="1" as="geometry">
                        <mxPoint x="441.5625" y="306.5625" as="sourcePoint"/>
                        <mxPoint x="300" y="316" as="targetPoint"/>
                    </mxGeometry>
                </mxCell>
                <mxCell id="136" value="data_edicio" style="ellipse;whiteSpace=wrap;html=1;" parent="1" vertex="1">
                    <mxGeometry x="414" y="390" width="100" height="30" as="geometry"/>
                </mxCell>
                <mxCell id="137" style="edgeStyle=none;html=1;endArrow=none;endFill=0;" parent="1" source="133" target="136" edge="1">
                    <mxGeometry relative="1" as="geometry">
                        <mxPoint x="475.2830188679245" y="355.2830188679245" as="sourcePoint"/>
                        <mxPoint x="420" y="420" as="targetPoint"/>
                    </mxGeometry>
                </mxCell>
                <mxCell id="138" value="N" style="text;html=1;strokeColor=none;fillColor=none;align=center;verticalAlign=middle;whiteSpace=wrap;rounded=0;" parent="1" vertex="1">
                    <mxGeometry x="570" y="320" width="30" height="20" as="geometry"/>
                </mxCell>
                <mxCell id="139" value="N" style="text;html=1;strokeColor=none;fillColor=none;align=center;verticalAlign=middle;whiteSpace=wrap;rounded=0;" parent="1" vertex="1">
                    <mxGeometry x="280" y="320" width="30" height="20" as="geometry"/>
                </mxCell>
                <mxCell id="140" value="ARTICLE" style="rounded=0;whiteSpace=wrap;html=1;" parent="1" vertex="1">
                    <mxGeometry x="360" y="600" width="120" height="40" as="geometry"/>
                </mxCell>
                <mxCell id="141" value="id" style="ellipse;whiteSpace=wrap;html=1;" parent="1" vertex="1">
                    <mxGeometry x="240" y="610" width="70" height="50" as="geometry"/>
                </mxCell>
                <mxCell id="142" value="titol" style="ellipse;whiteSpace=wrap;html=1;" parent="1" vertex="1">
                    <mxGeometry x="290" y="670" width="50" height="30" as="geometry"/>
                </mxCell>
                <mxCell id="143" value="contingut" style="ellipse;whiteSpace=wrap;html=1;" parent="1" vertex="1">
                    <mxGeometry x="344" y="690" width="70" height="30" as="geometry"/>
                </mxCell>
                <mxCell id="146" value="" style="endArrow=none;html=1;" parent="1" source="143" target="140" edge="1">
                    <mxGeometry width="50" height="50" relative="1" as="geometry">
                        <mxPoint x="430" y="710" as="sourcePoint"/>
                        <mxPoint x="284.998947368421" y="556.578947368421" as="targetPoint"/>
                    </mxGeometry>
                </mxCell>
                <mxCell id="147" value="" style="endArrow=none;html=1;" parent="1" source="142" target="140" edge="1">
                    <mxGeometry width="50" height="50" relative="1" as="geometry">
                        <mxPoint x="270" y="645" as="sourcePoint"/>
                        <mxPoint x="350" y="540" as="targetPoint"/>
                    </mxGeometry>
                </mxCell>
                <mxCell id="148" value="" style="endArrow=none;html=1;" parent="1" source="141" target="140" edge="1">
                    <mxGeometry width="50" height="50" relative="1" as="geometry">
                        <mxPoint x="280" y="655" as="sourcePoint"/>
                        <mxPoint x="360" y="550" as="targetPoint"/>
                    </mxGeometry>
                </mxCell>
                <mxCell id="149" value="crea" style="rhombus;whiteSpace=wrap;html=1;direction=south;" parent="1" vertex="1">
                    <mxGeometry x="270" y="450" width="50" height="50" as="geometry"/>
                </mxCell>
                <mxCell id="150" value="edita" style="rhombus;whiteSpace=wrap;html=1;" parent="1" vertex="1">
                    <mxGeometry x="210" y="470" width="50" height="50" as="geometry"/>
                </mxCell>
                <mxCell id="151" value="" style="endArrow=none;html=1;" parent="1" source="149" target="140" edge="1">
                    <mxGeometry width="50" height="50" relative="1" as="geometry">
                        <mxPoint x="329.83175612508694" y="675.8669544160784" as="sourcePoint"/>
                        <mxPoint x="386.36363636363626" y="650" as="targetPoint"/>
                    </mxGeometry>
                </mxCell>
                <mxCell id="152" value="" style="endArrow=none;html=1;" parent="1" source="3" target="149" edge="1">
                    <mxGeometry width="50" height="50" relative="1" as="geometry">
                        <mxPoint x="316.57407407407413" y="498.42592592592587" as="sourcePoint"/>
                        <mxPoint x="412.7586206896551" y="610" as="targetPoint"/>
                    </mxGeometry>
                </mxCell>
                <mxCell id="153" value="N" style="text;html=1;strokeColor=none;fillColor=none;align=center;verticalAlign=middle;whiteSpace=wrap;rounded=0;" parent="1" vertex="1">
                    <mxGeometry x="390" y="575" width="30" height="20" as="geometry"/>
                </mxCell>
                <mxCell id="154" value="1" style="text;html=1;strokeColor=none;fillColor=none;align=center;verticalAlign=middle;whiteSpace=wrap;rounded=0;" parent="1" vertex="1">
                    <mxGeometry x="240" y="330" width="30" height="20" as="geometry"/>
                </mxCell>
                <mxCell id="156" value="data_creacio" style="ellipse;whiteSpace=wrap;html=1;" parent="1" vertex="1">
                    <mxGeometry x="340" y="440" width="100" height="30" as="geometry"/>
                </mxCell>
                <mxCell id="157" value="" style="endArrow=none;html=1;" parent="1" source="149" target="156" edge="1">
                    <mxGeometry width="50" height="50" relative="1" as="geometry">
                        <mxPoint x="316.57407407407413" y="498.42592592592587" as="sourcePoint"/>
                        <mxPoint x="412.7586206896551" y="610" as="targetPoint"/>
                    </mxGeometry>
                </mxCell>
                <mxCell id="158" value="" style="endArrow=none;html=1;exitX=0.25;exitY=1;exitDx=0;exitDy=0;" parent="1" source="3" target="150" edge="1">
                    <mxGeometry width="50" height="50" relative="1" as="geometry">
                        <mxPoint x="140" y="380" as="sourcePoint"/>
                        <mxPoint x="297.5" y="467.5" as="targetPoint"/>
                    </mxGeometry>
                </mxCell>
                <mxCell id="159" value="" style="endArrow=none;html=1;" parent="1" source="140" target="150" edge="1">
                    <mxGeometry width="50" height="50" relative="1" as="geometry">
                        <mxPoint x="200" y="330" as="sourcePoint"/>
                        <mxPoint x="240" y="490" as="targetPoint"/>
                    </mxGeometry>
                </mxCell>
                <mxCell id="160" value="data_edicio" style="ellipse;whiteSpace=wrap;html=1;" parent="1" vertex="1">
                    <mxGeometry x="120" y="530" width="100" height="30" as="geometry"/>
                </mxCell>
                <mxCell id="161" value="" style="endArrow=none;html=1;" parent="1" source="160" target="150" edge="1">
                    <mxGeometry width="50" height="50" relative="1" as="geometry">
                        <mxPoint x="325.6521739130435" y="480.6521739130435" as="sourcePoint"/>
                        <mxPoint x="359.07216537687646" y="473.61638623644717" as="targetPoint"/>
                    </mxGeometry>
                </mxCell>
                <mxCell id="162" value="N" style="text;html=1;strokeColor=none;fillColor=none;align=center;verticalAlign=middle;whiteSpace=wrap;rounded=0;" parent="1" vertex="1">
                    <mxGeometry x="330" y="580" width="30" height="20" as="geometry"/>
                </mxCell>
                <mxCell id="163" value="N" style="text;html=1;strokeColor=none;fillColor=none;align=center;verticalAlign=middle;whiteSpace=wrap;rounded=0;" parent="1" vertex="1">
                    <mxGeometry x="160" y="330" width="30" height="20" as="geometry"/>
                </mxCell>
                <mxCell id="164" value="te" style="rhombus;whiteSpace=wrap;html=1;direction=south;" parent="1" vertex="1">
                    <mxGeometry x="580" y="450" width="50" height="50" as="geometry"/>
                </mxCell>
                <mxCell id="165" style="edgeStyle=none;html=1;endArrow=none;endFill=0;" parent="1" source="164" target="121" edge="1">
                    <mxGeometry relative="1" as="geometry">
                        <mxPoint x="540.0030188679245" y="420.6630188679245" as="sourcePoint"/>
                        <mxPoint x="674.72" y="389.33348837209303" as="targetPoint"/>
                    </mxGeometry>
                </mxCell>
                <mxCell id="166" style="edgeStyle=none;html=1;endArrow=none;endFill=0;" parent="1" source="164" target="140" edge="1">
                    <mxGeometry relative="1" as="geometry">
                        <mxPoint x="610" y="580" as="sourcePoint"/>
                        <mxPoint x="663.3333333333333" y="330" as="targetPoint"/>
                    </mxGeometry>
                </mxCell>
                <mxCell id="167" value="1" style="text;html=1;strokeColor=none;fillColor=none;align=center;verticalAlign=middle;whiteSpace=wrap;rounded=0;" parent="1" vertex="1">
                    <mxGeometry x="650" y="325" width="30" height="20" as="geometry"/>
                </mxCell>
                <mxCell id="168" value="N" style="text;html=1;strokeColor=none;fillColor=none;align=center;verticalAlign=middle;whiteSpace=wrap;rounded=0;" parent="1" vertex="1">
                    <mxGeometry x="475" y="580" width="30" height="20" as="geometry"/>
                </mxCell>
                <mxCell id="169" value="DOCUMENT" style="rounded=0;whiteSpace=wrap;html=1;" parent="1" vertex="1">
                    <mxGeometry x="595" y="720" width="120" height="40" as="geometry"/>
                </mxCell>
                <mxCell id="171" value="id" style="ellipse;whiteSpace=wrap;html=1;" parent="1" vertex="1">
                    <mxGeometry x="580" y="790" width="70" height="50" as="geometry"/>
                </mxCell>
                <mxCell id="172" value="enllac" style="ellipse;whiteSpace=wrap;html=1;" parent="1" vertex="1">
                    <mxGeometry x="670" y="790" width="50" height="30" as="geometry"/>
                </mxCell>
                <mxCell id="173" style="edgeStyle=none;html=1;endArrow=none;endFill=0;" parent="1" source="169" target="172" edge="1">
                    <mxGeometry relative="1" as="geometry">
                        <mxPoint x="652.7348484848485" y="620.0048484848485" as="sourcePoint"/>
                        <mxPoint x="507.26724137931024" y="734.02" as="targetPoint"/>
                    </mxGeometry>
                </mxCell>
                <mxCell id="174" style="edgeStyle=none;html=1;endArrow=none;endFill=0;" parent="1" source="169" target="171" edge="1">
                    <mxGeometry relative="1" as="geometry">
                        <mxPoint x="570.0048484848485" y="780.0048484848485" as="sourcePoint"/>
                        <mxPoint x="424.5372413793102" y="894.02" as="targetPoint"/>
                    </mxGeometry>
                </mxCell>
                <mxCell id="175" value="te" style="rhombus;whiteSpace=wrap;html=1;direction=south;" parent="1" vertex="1">
                    <mxGeometry x="620" y="595" width="50" height="50" as="geometry"/>
                </mxCell>
                <mxCell id="176" style="edgeStyle=none;html=1;endArrow=none;endFill=0;" parent="1" source="175" target="140" edge="1">
                    <mxGeometry relative="1" as="geometry">
                        <mxPoint x="600.9848484848485" y="495.9848484848485" as="sourcePoint"/>
                        <mxPoint x="456" y="620" as="targetPoint"/>
                    </mxGeometry>
                </mxCell>
                <mxCell id="177" style="edgeStyle=none;html=1;endArrow=none;endFill=0;" parent="1" source="175" target="169" edge="1">
                    <mxGeometry relative="1" as="geometry">
                        <mxPoint x="660.0048484848485" y="640.0048484848485" as="sourcePoint"/>
                        <mxPoint x="514.5372413793102" y="754.02" as="targetPoint"/>
                    </mxGeometry>
                </mxCell>
                <mxCell id="178" value="N" style="text;html=1;strokeColor=none;fillColor=none;align=center;verticalAlign=middle;whiteSpace=wrap;rounded=0;" parent="1" vertex="1">
                    <mxGeometry x="620" y="695" width="30" height="20" as="geometry"/>
                </mxCell>
                <mxCell id="179" value="1" style="text;html=1;strokeColor=none;fillColor=none;align=center;verticalAlign=middle;whiteSpace=wrap;rounded=0;" parent="1" vertex="1">
                    <mxGeometry x="480" y="620" width="30" height="20" as="geometry"/>
                </mxCell>
                <mxCell id="180" style="edgeStyle=none;html=1;endArrow=none;endFill=0;" parent="1" edge="1">
                    <mxGeometry relative="1" as="geometry">
                        <mxPoint x="360" y="249.5" as="sourcePoint"/>
                        <mxPoint x="310" y="249.94" as="targetPoint"/>
                    </mxGeometry>
                </mxCell>
                <mxCell id="181" style="edgeStyle=none;html=1;endArrow=none;endFill=0;" parent="1" edge="1">
                    <mxGeometry relative="1" as="geometry">
                        <mxPoint x="650" y="224.5" as="sourcePoint"/>
                        <mxPoint x="600" y="224.94000000000005" as="targetPoint"/>
                    </mxGeometry>
                </mxCell>
                <mxCell id="183" style="edgeStyle=none;html=1;endArrow=none;endFill=0;" parent="1" edge="1">
                    <mxGeometry relative="1" as="geometry">
                        <mxPoint x="300" y="645" as="sourcePoint"/>
                        <mxPoint x="250" y="645.44" as="targetPoint"/>
                    </mxGeometry>
                </mxCell>
                <mxCell id="184" style="edgeStyle=none;html=1;endArrow=none;endFill=0;" parent="1" edge="1">
                    <mxGeometry relative="1" as="geometry">
                        <mxPoint x="640" y="830" as="sourcePoint"/>
                        <mxPoint x="590" y="830.44" as="targetPoint"/>
                    </mxGeometry>
                </mxCell>
                <mxCell id="185" value="publicat" style="ellipse;whiteSpace=wrap;html=1;" vertex="1" parent="1">
                    <mxGeometry x="429" y="690" width="70" height="30" as="geometry"/>
                </mxCell>
                <mxCell id="186" value="" style="endArrow=none;html=1;" edge="1" parent="1" source="185" target="140">
                    <mxGeometry width="50" height="50" relative="1" as="geometry">
                        <mxPoint x="396.00893603238524" y="700.303843803063" as="sourcePoint"/>
                        <mxPoint x="420.3529411764705" y="650" as="targetPoint"/>
                    </mxGeometry>
                </mxCell>
            </root>
        </mxGraphModel>
    </diagram>
</mxfile>